<svg id="visual" viewBox="0 0 900 100" width="900" height="100" xmlns="http://www.w3.org/2000/svg" xmlns:xlink="http://www.w3.org/1999/xlink" version="1.1"><path d="M0 64L25 62.3C50 60.7 100 57.3 150 57.5C200 57.7 250 61.3 300 56.2C350 51 400 37 450 37C500 37 550 51 600 60.2C650 69.3 700 73.7 750 74.5C800 75.3 850 72.7 875 71.3L900 70L900 0L875 0C850 0 800 0 750 0C700 0 650 0 600 0C550 0 500 0 450 0C400 0 350 0 300 0C250 0 200 0 150 0C100 0 50 0 25 0L0 0Z" fill="#161718" stroke-linecap="round" stroke-linejoin="miter"></path></svg>