<svg id="visual" viewBox="0 0 900 100" width="900" height="100" xmlns="http://www.w3.org/2000/svg" xmlns:xlink="http://www.w3.org/1999/xlink" version="1.1"><path d="M0 42L25 41.7C50 41.3 100 40.7 150 46.2C200 51.7 250 63.3 300 64C350 64.7 400 54.3 450 51.7C500 49 550 54 600 51.5C650 49 700 39 750 34C800 29 850 29 875 29L900 29L900 101L875 101C850 101 800 101 750 101C700 101 650 101 600 101C550 101 500 101 450 101C400 101 350 101 300 101C250 101 200 101 150 101C100 101 50 101 25 101L0 101Z" fill="#161718" stroke-linecap="round" stroke-linejoin="miter"></path></svg>